<svg width="583" height="583" viewBox="0 0 583 583" fill="none" xmlns="http://www.w3.org/2000/svg">
<path d="M279.233 83.4014C281.311 69.275 301.689 69.275 303.767 83.4014V83.4014C305.612 95.9441 322.867 97.9609 327.554 86.1817V86.1817C332.834 72.9153 352.663 77.615 351.427 91.8397V91.8397C350.33 104.47 366.654 110.411 373.932 100.031V100.031C382.129 88.3396 400.34 97.4855 395.857 111.042V111.042C391.876 123.078 406.391 132.625 415.866 124.202V124.202C426.538 114.716 442.149 127.815 434.66 139.972V139.972C428.011 150.766 439.933 163.403 451.095 157.392V157.392C463.667 150.623 475.836 166.97 465.746 177.072V177.072C456.787 186.042 465.473 201.086 477.721 197.813V197.813C491.515 194.125 499.586 212.837 487.438 220.34V220.34C476.652 227.002 481.634 243.645 494.307 243.283V243.283C508.579 242.877 512.118 262.946 498.567 267.445V267.445C486.535 271.44 487.546 288.783 499.96 291.354V291.354C513.941 294.249 512.757 314.593 498.533 315.846V315.846C485.904 316.959 482.888 334.067 494.375 339.432V339.432C507.311 345.474 501.467 364.996 487.338 362.935V362.935C474.793 361.105 467.912 377.057 477.852 384.926V384.926C489.047 393.788 478.858 411.437 465.585 406.173V406.173C453.8 401.499 443.426 415.434 451.284 425.383V425.383C460.133 436.589 446.148 451.411 434.447 443.229V443.229C424.058 435.963 410.75 447.13 416.101 458.623V458.623C422.128 471.567 405.102 482.765 395.603 472.105V472.105C387.169 462.639 371.645 470.436 374.201 482.853V482.853C377.08 496.838 357.931 503.808 351.147 491.244V491.244C345.123 480.089 328.219 484.095 327.843 496.767V496.767C327.419 511.039 307.178 513.405 303.475 499.616V499.616C300.186 487.372 282.814 487.372 279.525 499.616V499.616C275.822 513.405 255.581 511.039 255.157 496.767V496.767C254.781 484.095 237.877 480.089 231.853 491.244V491.244C225.069 503.808 205.92 496.838 208.799 482.853V482.853C211.355 470.436 195.831 462.639 187.397 472.105V472.105C177.898 482.765 160.872 471.567 166.899 458.623V458.623C172.25 447.13 158.942 435.963 148.553 443.229V443.229C136.852 451.411 122.867 436.589 131.716 425.383V425.383C139.574 415.434 129.2 401.499 117.415 406.173V406.173C104.142 411.437 93.9529 393.788 105.148 384.926V384.926C115.088 377.057 108.207 361.105 95.6619 362.935V362.935C81.5331 364.996 75.6885 345.474 88.6255 339.432V339.432C100.112 334.067 97.0955 316.959 84.4667 315.846V315.846C70.2435 314.593 69.0586 294.249 83.0402 291.354V291.354C95.4544 288.783 96.4645 271.44 84.4327 267.445V267.445C70.8818 262.946 74.4205 242.877 88.693 243.283V243.283C101.366 243.645 106.348 227.002 95.5618 220.34V220.34C83.4137 212.837 91.4852 194.125 105.279 197.813V197.813C117.527 201.086 126.213 186.042 117.254 177.072V177.072C107.164 166.97 119.333 150.623 131.905 157.392V157.392C143.067 163.403 154.989 150.766 148.34 139.972V139.972C140.851 127.815 156.462 114.716 167.134 124.202V124.202C176.609 132.625 191.124 123.078 187.143 111.042V111.042C182.66 97.4855 200.871 88.3396 209.068 100.031V100.031C216.346 110.411 232.67 104.47 231.573 91.8397V91.8397C230.337 77.615 250.166 72.9153 255.446 86.1817V86.1817C260.133 97.9609 277.388 95.9441 279.233 83.4014V83.4014Z" fill="url(#paint0_linear_35_4)"/>
<circle cx="292" cy="292" r="155.5" stroke="white" stroke-width="3" stroke-dasharray="10 10"/>
<path d="M249.903 361L308.568 244.807V243.884H239.96V215.545H344.932V244.097L286.054 361H249.903Z" fill="url(#paint1_linear_35_4)"/>
<path d="M213.163 350.371C213.018 349.834 212.805 349.361 212.524 348.952C212.243 348.534 211.898 348.18 211.489 347.891C211.08 347.601 210.611 347.384 210.082 347.239C209.554 347.085 208.974 347.009 208.344 347.009C207.074 347.009 205.974 347.315 205.045 347.929C204.125 348.543 203.413 349.437 202.911 350.614C202.408 351.781 202.156 353.2 202.156 354.871C202.156 356.55 202.399 357.982 202.885 359.166C203.371 360.351 204.074 361.254 204.994 361.876C205.915 362.499 207.031 362.81 208.344 362.81C209.503 362.81 210.483 362.622 211.284 362.247C212.094 361.864 212.707 361.322 213.125 360.624C213.543 359.925 213.751 359.102 213.751 358.156L214.928 358.297H208.561V353.682H219.849V357.146C219.849 359.49 219.351 361.497 218.354 363.168C217.365 364.838 216.001 366.121 214.263 367.016C212.533 367.911 210.543 368.358 208.293 368.358C205.795 368.358 203.601 367.817 201.709 366.734C199.817 365.652 198.342 364.109 197.286 362.107C196.229 360.095 195.7 357.709 195.7 354.947C195.7 352.8 196.02 350.895 196.659 349.233C197.298 347.562 198.189 346.148 199.331 344.989C200.482 343.83 201.811 342.952 203.32 342.355C204.837 341.759 206.469 341.46 208.216 341.46C209.733 341.46 211.143 341.678 212.447 342.112C213.76 342.547 214.919 343.161 215.925 343.953C216.939 344.746 217.761 345.688 218.392 346.778C219.023 347.869 219.415 349.067 219.568 350.371H213.163ZM228.434 368H221.633L230.467 341.818H238.891L247.725 368H240.924L234.775 348.415H234.57L228.434 368ZM227.526 357.696H241.742V362.503H227.526V357.696ZM250.544 368V341.818H261.359C263.32 341.818 265.011 342.172 266.435 342.879C267.866 343.578 268.97 344.584 269.746 345.896C270.521 347.2 270.909 348.747 270.909 350.537C270.909 352.352 270.513 353.895 269.72 355.165C268.928 356.426 267.803 357.389 266.345 358.054C264.888 358.71 263.162 359.038 261.168 359.038H254.328V354.053H259.991C260.946 354.053 261.743 353.929 262.382 353.682C263.03 353.426 263.52 353.043 263.852 352.531C264.185 352.011 264.351 351.347 264.351 350.537C264.351 349.727 264.185 349.058 263.852 348.53C263.52 347.993 263.03 347.592 262.382 347.328C261.734 347.055 260.938 346.919 259.991 346.919H256.872V368H250.544ZM265.284 356.034L271.804 368H264.901L258.509 356.034H265.284ZM280.043 368H273.242L282.076 341.818H290.501L299.335 368H292.533L286.384 348.415H286.18L280.043 368ZM279.136 357.696H293.352V362.503H279.136V357.696ZM324.436 341.818V368H319.067L308.648 352.889H308.482V368H302.153V341.818H307.599L317.903 356.903H318.121V341.818H324.436ZM327.559 346.957V341.818H349.688V346.957H341.749V368H335.51V346.957H327.559ZM359.107 341.818V368H352.778V341.818H359.107ZM368.743 368H361.941L370.775 341.818H379.2L388.034 368H381.233L375.083 348.415H374.879L368.743 368ZM367.835 357.696H382.051V362.503H367.835V357.696Z" fill="white"/>
<defs>
<linearGradient id="paint0_linear_35_4" x1="291.5" y1="0" x2="291.5" y2="583" gradientUnits="userSpaceOnUse">
<stop stop-color="#F2D616"/>
<stop offset="1" stop-color="#D92929"/>
</linearGradient>
<linearGradient id="paint1_linear_35_4" x1="292" y1="216" x2="292" y2="324.68" gradientUnits="userSpaceOnUse">
<stop stop-color="white"/>
<stop offset="1" stop-color="#FFFCFC" stop-opacity="0"/>
</linearGradient>
</defs>
</svg>
