<svg width="440" height="533" viewBox="0 0 440 533" fill="none" xmlns="http://www.w3.org/2000/svg">
<path d="M75.3405 311.272C75.3405 311.272 107.526 294.067 128.149 283.042C144.805 283.055 154.143 283.062 170.799 283.075C291.978 247.28 481.098 191.415 481.098 191.415L481.318 237.382L187.486 326.405C187.486 326.405 150.089 331.114 140.211 332.409C120.199 341.721 88.9685 356.253 88.9685 356.253L75.3405 311.272Z" fill="url(#paint0_linear_1_248)"/>
<path d="M199.91 298.573L197.522 299.275C197.388 298.979 197.218 298.731 197.013 298.531C196.807 298.327 196.574 298.171 196.313 298.062C196.052 297.953 195.77 297.894 195.467 297.884C195.168 297.873 194.858 297.915 194.538 298.009C193.961 298.179 193.499 298.47 193.155 298.884C192.81 299.293 192.599 299.805 192.523 300.42C192.446 301.031 192.521 301.723 192.749 302.497C192.983 303.293 193.297 303.927 193.693 304.399C194.092 304.87 194.546 305.18 195.057 305.331C195.567 305.481 196.103 305.473 196.666 305.307C196.983 305.214 197.263 305.087 197.507 304.924C197.755 304.76 197.961 304.567 198.125 304.346C198.288 304.12 198.404 303.871 198.473 303.597C198.547 303.323 198.567 303.029 198.534 302.715L200.925 302.024C201.013 302.555 201.004 303.094 200.897 303.643C200.793 304.187 200.588 304.707 200.284 305.203C199.982 305.695 199.578 306.133 199.072 306.519C198.568 306.9 197.958 307.196 197.242 307.406C196.246 307.699 195.29 307.736 194.372 307.516C193.459 307.295 192.649 306.824 191.944 306.104C191.242 305.382 190.713 304.415 190.356 303.201C189.998 301.983 189.922 300.88 190.129 299.892C190.336 298.903 190.766 298.07 191.42 297.392C192.072 296.711 192.889 296.226 193.87 295.937C194.517 295.747 195.143 295.662 195.749 295.681C196.358 295.699 196.929 295.82 197.46 296.042C197.991 296.262 198.464 296.582 198.88 297.005C199.3 297.426 199.644 297.949 199.91 298.573ZM203.736 305.331L200.453 294.167L207.976 291.956L208.548 293.902L203.386 295.419L204.168 298.08L208.943 296.676L209.515 298.622L204.74 300.026L205.524 302.691L210.708 301.167L211.28 303.113L203.736 305.331ZM219.19 288.658L222.473 299.822L220.434 300.422L213.511 294.823L213.429 294.847L215.495 301.874L213.135 302.568L209.853 291.404L211.924 290.795L218.807 296.399L218.905 296.37L216.841 289.349L219.19 288.658ZM226.347 298.683L223.818 299.427L224.389 287.13L227.431 286.235L234.562 296.268L232.032 297.011L226.704 289.221L226.617 289.247L226.347 298.683ZM224.899 294.341L230.873 292.585L231.415 294.427L225.44 296.184L224.899 294.341ZM243.416 293.665L239.458 294.828L236.176 283.664L240.166 282.491C241.289 282.161 242.321 282.1 243.263 282.309C244.204 282.514 245.015 282.969 245.695 283.673C246.38 284.375 246.892 285.307 247.233 286.466C247.575 287.629 247.649 288.693 247.455 289.658C247.265 290.622 246.827 291.448 246.14 292.135C245.458 292.821 244.549 293.331 243.416 293.665ZM241.224 292.112L242.723 291.671C243.421 291.466 243.971 291.17 244.375 290.783C244.781 290.391 245.027 289.898 245.113 289.304C245.201 288.706 245.123 287.99 244.878 287.158C244.636 286.333 244.316 285.695 243.919 285.243C243.525 284.79 243.054 284.51 242.505 284.403C241.956 284.296 241.333 284.345 240.635 284.55L239.131 284.993L241.224 292.112ZM250.626 291.545L247.344 280.381L254.866 278.169L255.438 280.115L250.276 281.633L251.058 284.293L255.833 282.889L256.406 284.835L251.631 286.239L252.414 288.905L257.598 287.38L258.17 289.326L250.626 291.545Z" fill="#0D0D0D"/>
<path d="M366.868 250.539L364.481 251.241C364.346 250.945 364.177 250.697 363.972 250.496C363.766 250.292 363.532 250.136 363.271 250.027C363.01 249.918 362.728 249.859 362.425 249.85C362.126 249.839 361.816 249.88 361.497 249.975C360.919 250.144 360.458 250.436 360.113 250.849C359.768 251.259 359.557 251.771 359.481 252.385C359.404 252.996 359.479 253.689 359.707 254.463C359.941 255.259 360.256 255.893 360.651 256.365C361.05 256.836 361.505 257.146 362.015 257.296C362.525 257.446 363.061 257.438 363.625 257.273C363.941 257.18 364.221 257.052 364.465 256.889C364.713 256.726 364.919 256.533 365.083 256.311C365.246 256.086 365.362 255.836 365.432 255.563C365.505 255.289 365.525 254.995 365.492 254.681L367.883 253.99C367.972 254.52 367.963 255.06 367.855 255.608C367.751 256.153 367.546 256.673 367.242 257.169C366.941 257.66 366.537 258.099 366.03 258.484C365.526 258.866 364.916 259.161 364.2 259.372C363.205 259.665 362.248 259.701 361.331 259.481C360.417 259.26 359.607 258.79 358.902 258.069C358.2 257.348 357.671 256.38 357.314 255.166C356.956 253.949 356.88 252.846 357.087 251.857C357.294 250.869 357.724 250.035 358.378 249.358C359.03 248.676 359.847 248.191 360.828 247.903C361.475 247.713 362.101 247.627 362.707 247.646C363.317 247.665 363.887 247.785 364.419 248.008C364.949 248.227 365.422 248.548 365.839 248.97C366.259 249.392 366.602 249.915 366.868 250.539ZM370.694 257.297L367.412 246.133L371.816 244.838C372.659 244.59 373.423 244.529 374.108 244.656C374.795 244.777 375.376 245.067 375.85 245.524C376.326 245.976 376.673 246.571 376.89 247.308C377.107 248.05 377.135 248.734 376.972 249.363C376.809 249.987 376.465 250.531 375.941 250.992C375.421 251.453 374.733 251.81 373.875 252.062L370.926 252.929L370.368 251.032L372.936 250.277C373.386 250.145 373.742 249.973 374.004 249.762C374.266 249.55 374.433 249.3 374.506 249.01C374.582 248.719 374.566 248.39 374.458 248.023C374.349 247.652 374.183 247.362 373.959 247.151C373.739 246.94 373.459 246.813 373.119 246.771C372.781 246.724 372.385 246.767 371.931 246.901L370.339 247.369L373.054 256.603L370.694 257.297ZM375.229 250.444L379.498 254.708L376.892 255.474L372.684 251.192L375.229 250.444ZM379.846 242.477L383.128 253.641L380.768 254.335L377.485 243.171L379.846 242.477ZM381.788 241.906L384.698 241.05L389.978 247.647L390.109 247.609L390.978 239.204L393.889 238.348L397.171 249.512L394.882 250.185L392.746 242.919L392.653 242.946L391.884 251.007L390.325 251.466L385.308 245.076L385.215 245.103L387.359 252.397L385.07 253.07L381.788 241.906ZM399.116 248.94L395.834 237.776L403.356 235.565L403.928 237.511L398.766 239.028L399.548 241.689L404.323 240.285L404.896 242.231L400.12 243.635L400.904 246.3L406.088 244.776L406.66 246.722L399.116 248.94Z" fill="#0D0D0D"/>
<path d="M92.7868 402.444C92.7868 402.444 113.553 386.439 126.858 376.184C160.297 350.413 212.483 310.192 212.483 310.192L299.248 243.32L406.901 160.35L428.029 141.248L451.355 126.089L501.565 87.3916L516.039 131.973L481.246 159.106L444.355 183.753L258.751 332.619L194.797 388.238C194.797 388.238 169.34 411.895 153.94 426.758C143.678 436.662 126.029 446.689 126.029 446.689L92.7868 402.444Z" fill="url(#paint1_linear_1_248)"/>
<path d="M195.158 349.663L202.365 358.799L200.696 360.115L192.186 357.5L192.119 357.553L196.655 363.303L194.723 364.827L187.516 355.691L189.211 354.354L197.687 356.989L197.768 356.925L193.235 351.18L195.158 349.663ZM205.535 356.298L203.465 357.93L199.412 346.307L201.901 344.343L212.258 350.994L210.188 352.627L202.339 347.384L202.268 347.441L205.535 356.298ZM202.573 352.809L207.462 348.952L208.651 350.459L203.762 354.316L202.573 352.809ZM198.666 345.434L197.602 346.251C197.154 345.683 196.95 345.137 196.99 344.613C197.031 344.089 197.253 343.665 197.658 343.341C197.867 343.176 198.072 343.07 198.275 343.021C198.475 342.969 198.671 342.94 198.864 342.933C199.056 342.926 199.234 342.913 199.398 342.895C199.56 342.873 199.704 342.812 199.832 342.711C200.002 342.572 200.083 342.405 200.074 342.21C200.065 342.009 199.98 341.806 199.818 341.601L200.882 340.812C201.319 341.379 201.519 341.926 201.481 342.453C201.441 342.977 201.22 343.399 200.818 343.722C200.6 343.898 200.388 344.012 200.182 344.063C199.98 344.112 199.788 344.138 199.607 344.141C199.424 344.141 199.251 344.149 199.09 344.165C198.929 344.181 198.782 344.242 198.648 344.347C198.493 344.469 198.417 344.629 198.418 344.826C198.419 345.023 198.501 345.226 198.666 345.434ZM217.72 339.275C218.506 340.271 218.985 341.267 219.159 342.264C219.336 343.259 219.245 344.196 218.888 345.076C218.531 345.951 217.95 346.707 217.144 347.342C216.332 347.983 215.458 348.373 214.522 348.514C213.585 348.654 212.654 348.522 211.728 348.119C210.802 347.716 209.947 347.018 209.164 346.024C208.378 345.028 207.897 344.033 207.72 343.038C207.543 342.044 207.633 341.109 207.99 340.234C208.345 339.356 208.928 338.597 209.74 337.957C210.546 337.321 211.417 336.933 212.353 336.793C213.29 336.647 214.221 336.776 215.147 337.179C216.076 337.58 216.934 338.278 217.72 339.275ZM215.761 340.82C215.252 340.174 214.726 339.706 214.183 339.416C213.643 339.123 213.109 338.999 212.581 339.044C212.052 339.09 211.554 339.297 211.087 339.665C210.621 340.034 210.303 340.469 210.136 340.973C209.969 341.476 209.963 342.026 210.12 342.622C210.279 343.215 210.613 343.834 211.122 344.479C211.631 345.125 212.156 345.594 212.696 345.887C213.238 346.178 213.774 346.3 214.303 346.255C214.831 346.209 215.329 346.002 215.796 345.634C216.263 345.265 216.58 344.83 216.747 344.326C216.915 343.823 216.919 343.274 216.759 342.681C216.603 342.085 216.27 341.465 215.761 340.82ZM225.483 330.002C225.163 329.671 224.79 329.512 224.362 329.526C223.934 329.54 223.488 329.73 223.024 330.096C222.709 330.345 222.478 330.6 222.331 330.86C222.182 331.118 222.111 331.369 222.117 331.616C222.126 331.859 222.208 332.079 222.363 332.276C222.486 332.444 222.632 332.56 222.803 332.623C222.977 332.684 223.165 332.706 223.37 332.69C223.571 332.671 223.786 332.624 224.013 332.551C224.238 332.475 224.467 332.381 224.702 332.269L225.677 331.817C226.146 331.592 226.606 331.423 227.056 331.308C227.507 331.194 227.939 331.15 228.354 331.174C228.77 331.199 229.16 331.306 229.526 331.495C229.895 331.681 230.232 331.964 230.535 332.342C230.973 332.903 231.213 333.501 231.254 334.134C231.296 334.762 231.141 335.398 230.79 336.041C230.44 336.68 229.893 337.292 229.149 337.879C228.412 338.46 227.68 338.854 226.955 339.06C226.232 339.263 225.543 339.264 224.887 339.063C224.232 338.856 223.637 338.43 223.104 337.784L224.973 336.31C225.236 336.6 225.525 336.786 225.842 336.869C226.159 336.947 226.489 336.935 226.833 336.833C227.178 336.725 227.516 336.54 227.849 336.277C228.177 336.019 228.423 335.747 228.589 335.462C228.758 335.175 228.842 334.893 228.842 334.618C228.842 334.343 228.756 334.095 228.582 333.875C228.42 333.67 228.223 333.546 227.991 333.502C227.762 333.456 227.492 333.476 227.183 333.561C226.876 333.643 226.525 333.776 226.129 333.958L224.937 334.493C224.019 334.913 223.18 335.1 222.419 335.054C221.659 335.007 221.014 334.645 220.484 333.968C220.045 333.417 219.811 332.817 219.782 332.169C219.756 331.519 219.914 330.871 220.254 330.227C220.594 329.582 221.098 328.997 221.764 328.471C222.442 327.936 223.125 327.585 223.814 327.418C224.505 327.249 225.155 327.26 225.764 327.45C226.373 327.641 226.896 328.005 227.334 328.542L225.483 330.002ZM233.893 333.927L226.686 324.791L232.842 319.935L234.098 321.527L229.873 324.86L231.591 327.037L235.498 323.954L236.755 325.546L232.847 328.629L234.568 330.81L238.81 327.464L240.066 329.056L233.893 333.927ZM238.035 315.837L239.944 314.331L244.97 320.701C245.434 321.29 245.705 321.906 245.783 322.549C245.864 323.19 245.764 323.812 245.482 324.415C245.2 325.018 244.75 325.564 244.132 326.052C243.582 326.486 243.006 326.783 242.404 326.944C241.803 327.1 241.215 327.082 240.639 326.89C240.06 326.695 239.533 326.293 239.058 325.684L240.98 324.167C241.176 324.403 241.388 324.571 241.617 324.671C241.846 324.765 242.078 324.794 242.314 324.757C242.551 324.715 242.783 324.605 243.009 324.426C243.247 324.239 243.408 324.03 243.491 323.8C243.576 323.564 243.583 323.313 243.512 323.046C243.441 322.778 243.29 322.499 243.06 322.207L238.035 315.837ZM250.323 320.965L248.253 322.598L244.2 310.974L246.689 309.01L257.046 315.662L254.976 317.295L247.127 312.052L247.056 312.108L250.323 320.965ZM247.361 317.476L252.25 313.619L253.439 315.127L248.55 318.984L247.361 317.476ZM255.496 302.063L263.18 307.262L263.264 307.195L260.001 298.509L262.143 296.819L266.2 308.44L263.711 310.403L253.35 303.755L255.496 302.063ZM265.174 294.428L272.381 303.564L270.449 305.088L263.242 295.952L265.174 294.428ZM267.671 295.041L266.415 293.449L273.918 287.53L275.174 289.122L272.377 291.329L278.328 298.872L276.419 300.378L270.468 292.835L267.671 295.041ZM277.085 285.031L284.292 294.167L282.361 295.691L275.154 286.555L277.085 285.031ZM278.674 283.778L281.056 281.898L288.415 286.052L288.522 285.967L286.195 277.844L288.577 275.965L295.785 285.101L293.911 286.579L289.22 280.633L289.144 280.693L291.436 288.459L290.16 289.466L283.122 285.407L283.046 285.467L287.755 291.435L285.881 292.913L278.674 283.778ZM298.951 282.603L296.881 284.236L292.827 272.612L295.317 270.649L305.673 277.3L303.603 278.933L295.755 273.69L295.683 273.746L298.951 282.603ZM295.988 279.114L300.877 275.257L302.067 276.765L297.178 280.622L295.988 279.114ZM312.919 271.584L309.68 274.139L302.473 265.003L305.738 262.427C306.657 261.702 307.593 261.261 308.544 261.104C309.494 260.943 310.415 261.063 311.31 261.462C312.207 261.86 313.029 262.533 313.778 263.481C314.528 264.433 314.994 265.393 315.173 266.36C315.356 267.326 315.257 268.256 314.877 269.149C314.499 270.041 313.846 270.852 312.919 271.584ZM310.306 270.96L311.533 269.993C312.104 269.542 312.504 269.062 312.734 268.553C312.965 268.038 313.009 267.489 312.868 266.906C312.727 266.317 312.388 265.682 311.851 265.001C311.318 264.326 310.783 263.853 310.246 263.582C309.712 263.309 309.17 263.225 308.621 263.33C308.072 263.435 307.512 263.713 306.941 264.163L305.71 265.134L310.306 270.96ZM318.819 266.929L311.612 257.793L317.768 252.937L319.024 254.53L314.8 257.862L316.517 260.039L320.425 256.956L321.681 258.549L317.774 261.632L319.494 263.813L323.737 260.466L324.993 262.059L318.819 266.929ZM329.418 258.568L322.211 249.432L328.26 244.66L329.516 246.253L325.399 249.501L327.116 251.678L330.832 248.746L332.088 250.339L328.372 253.27L331.35 257.044L329.418 258.568ZM336.766 252.771L329.559 243.635L335.715 238.779L336.971 240.371L332.747 243.704L334.464 245.881L338.372 242.798L339.628 244.391L335.721 247.473L337.441 249.655L341.684 246.308L342.94 247.901L336.766 252.771ZM337.251 237.567L339.633 235.688L346.991 239.842L347.098 239.757L344.772 231.634L347.154 229.755L354.361 238.891L352.487 240.369L347.796 234.423L347.72 234.482L350.012 242.249L348.736 243.256L341.699 239.197L341.623 239.257L346.331 245.225L344.458 246.703L337.251 237.567ZM350.677 226.976L357.884 236.112L355.952 237.635L348.745 228.5L350.677 226.976ZM359.907 219.694L367.114 228.83L365.446 230.146L356.935 227.531L356.868 227.584L361.404 233.334L359.473 234.858L352.266 225.722L353.961 224.385L362.437 227.02L362.517 226.956L357.985 221.211L359.907 219.694ZM363.435 216.911L370.642 226.047L368.71 227.571L361.503 218.435L363.435 216.911ZM375.608 212.497L373.654 214.038C373.419 213.814 373.169 213.647 372.904 213.537C372.637 213.425 372.362 213.367 372.079 213.363C371.796 213.359 371.513 213.409 371.228 213.513C370.946 213.615 370.674 213.769 370.413 213.975C369.94 214.349 369.621 214.791 369.455 215.303C369.287 215.811 369.283 216.365 369.441 216.964C369.597 217.559 369.925 218.174 370.425 218.807C370.939 219.459 371.467 219.93 372.01 220.22C372.556 220.508 373.093 220.627 373.623 220.576C374.152 220.526 374.647 220.318 375.108 219.955C375.367 219.751 375.579 219.527 375.745 219.285C375.914 219.041 376.033 218.785 376.103 218.519C376.17 218.249 376.184 217.974 376.147 217.694C376.113 217.413 376.022 217.132 375.874 216.853L377.835 215.321C378.116 215.78 378.308 216.284 378.413 216.833C378.519 217.377 378.523 217.936 378.426 218.51C378.329 219.078 378.118 219.636 377.792 220.182C377.466 220.724 377.01 221.226 376.425 221.688C375.61 222.331 374.736 222.721 373.802 222.859C372.872 222.995 371.945 222.86 371.022 222.454C370.102 222.046 369.25 221.345 368.467 220.352C367.681 219.356 367.2 218.361 367.023 217.366C366.846 216.372 366.935 215.438 367.289 214.566C367.64 213.69 368.217 212.936 369.02 212.302C369.55 211.885 370.099 211.572 370.668 211.364C371.241 211.154 371.815 211.053 372.391 211.062C372.965 211.067 373.524 211.188 374.067 211.425C374.614 211.66 375.128 212.017 375.608 212.497ZM376.401 206.682L383.608 215.818L381.677 217.342L374.47 208.206L376.401 206.682ZM374.063 207.094L373.407 204.318L375.165 202.932L375.406 206.035L374.063 207.094ZM388.436 212.009L385.197 214.564L377.99 205.428L381.256 202.853C382.175 202.128 383.11 201.686 384.062 201.529C385.011 201.369 385.933 201.488 386.827 201.888C387.724 202.285 388.547 202.958 389.295 203.906C390.046 204.858 390.511 205.818 390.691 206.786C390.874 207.751 390.775 208.681 390.394 209.574C390.017 210.466 389.364 211.277 388.436 212.009ZM385.823 211.386L387.05 210.418C387.621 209.967 388.022 209.487 388.252 208.978C388.482 208.463 388.527 207.914 388.385 207.331C388.244 206.742 387.905 206.108 387.368 205.427C386.836 204.752 386.301 204.279 385.764 204.008C385.23 203.734 384.688 203.65 384.139 203.755C383.59 203.86 383.03 204.138 382.459 204.588L381.227 205.56L385.823 211.386ZM389.061 196.695L396.268 205.831L394.337 207.355L387.129 198.219L389.061 196.695ZM402.649 193.386C403.435 194.382 403.915 195.379 404.088 196.376C404.265 197.37 404.175 198.308 403.817 199.188C403.46 200.063 402.879 200.818 402.073 201.454C401.261 202.094 400.387 202.485 399.451 202.625C398.515 202.765 397.584 202.634 396.658 202.231C395.732 201.827 394.877 201.129 394.093 200.136C393.307 199.14 392.826 198.144 392.649 197.15C392.473 196.155 392.563 195.221 392.92 194.346C393.274 193.468 393.857 192.709 394.669 192.068C395.475 191.432 396.346 191.044 397.282 190.904C398.219 190.758 399.151 190.887 400.077 191.29C401.006 191.691 401.863 192.39 402.649 193.386ZM400.691 194.931C400.182 194.286 399.656 193.818 399.113 193.527C398.573 193.234 398.039 193.111 397.51 193.156C396.981 193.202 396.484 193.408 396.017 193.777C395.55 194.145 395.233 194.581 395.066 195.084C394.898 195.588 394.893 196.137 395.049 196.733C395.208 197.326 395.542 197.946 396.051 198.591C396.561 199.236 397.085 199.705 397.625 199.998C398.168 200.289 398.704 200.412 399.232 200.366C399.761 200.321 400.258 200.114 400.725 199.745C401.192 199.377 401.509 198.941 401.677 198.438C401.844 197.934 401.848 197.386 401.689 196.793C401.533 196.197 401.2 195.576 400.691 194.931Z" fill="#0D0D0D"/>
<defs>
<linearGradient id="paint0_linear_1_248" x1="82.1545" y1="333.762" x2="474.504" y2="214.891" gradientUnits="userSpaceOnUse">
<stop stop-color="#F2A016"/>
<stop offset="1" stop-color="#F2BB16"/>
</linearGradient>
<linearGradient id="paint1_linear_1_248" x1="107.239" y1="420.973" x2="501.589" y2="113.44" gradientUnits="userSpaceOnUse">
<stop stop-color="#F2D616"/>
<stop offset="1" stop-color="#F2BB16"/>
</linearGradient>
</defs>
</svg>
